<?xml version="1.0" encoding="utf-8"?><!-- Uploaded to: SVG Repo, www.svgrepo.com, Generator: SVG Repo Mixer Tools -->
<svg fill="#000000" width="800px" height="800px" viewBox="0 0 24 24" id="shipping" data-name="Flat Line" xmlns="http://www.w3.org/2000/svg" class="icon flat-line"><path id="secondary" d="M16,6v9a2,2,0,0,0-2,2H10a2,2,0,0,0-4,0H4a1,1,0,0,1-1-1V6A1,1,0,0,1,4,5H15A1,1,0,0,1,16,6Z" style="fill: rgb(44, 169, 188); stroke-width: 2;"></path><path id="primary" d="M16,15V6a1,1,0,0,0-1-1H4A1,1,0,0,0,3,6V16a1,1,0,0,0,1,1H6" style="fill: none; stroke: rgb(0, 0, 0); stroke-linecap: round; stroke-linejoin: round; stroke-width: 2;"></path><path id="primary-2" data-name="primary" d="M18,17h2a1,1,0,0,0,1-1V12L19.28,8.55a1,1,0,0,0-.9-.55H16" style="fill: none; stroke: rgb(0, 0, 0); stroke-linecap: round; stroke-linejoin: round; stroke-width: 2;"></path><path id="primary-3" data-name="primary" d="M14,17H10M8,15a2,2,0,1,0,2,2A2,2,0,0,0,8,15Zm10,2a2,2,0,1,1-2-2A2,2,0,0,1,18,17Z" style="fill: none; stroke: rgb(0, 0, 0); stroke-linecap: round; stroke-linejoin: round; stroke-width: 2;"></path></svg>